<?xml version="1.0" encoding="UTF-8" standalone="no"?>
<svg
   xmlns:dc="http://purl.org/dc/elements/1.1/"
   xmlns:cc="http://creativecommons.org/ns#"
   xmlns:rdf="http://www.w3.org/1999/02/22-rdf-syntax-ns#"
   xmlns:svg="http://www.w3.org/2000/svg"
   xmlns="http://www.w3.org/2000/svg"
   xml:space="preserve"
   width="32px"
   viewBox="0 0 32 32"
   version="1.1"
   style="enable-background:new 0 0 32 32;"
   id="Layer_1"
   height="32px"><metadata
     id="metadata840"><rdf:RDF><cc:Work
         rdf:about=""><dc:format>image/svg+xml</dc:format><dc:type
           rdf:resource="http://purl.org/dc/dcmitype/StillImage" /><dc:title></dc:title></cc:Work></rdf:RDF></metadata><defs
     id="defs838" /><path
     style="stroke-width:1.00412"
     id="path833"
     d="M 3.9505212,9.9340283 H 28.049479 c 1.108552,0 2.008246,-0.8996944 2.008246,-2.0082465 0,-1.108552 -0.899694,-2.0082464 -2.008246,-2.0082464 H 3.9505212 c -1.108552,0 -2.0082464,0.8996944 -2.0082464,2.0082464 0,1.1085521 0.8996944,2.0082465 2.0082464,2.0082465 z M 28.049479,13.950521 H 3.9505212 c -1.108552,0 -2.0082464,0.899695 -2.0082464,2.008247 0,1.108552 0.8996944,2.008246 2.0082464,2.008246 H 28.049479 c 1.108552,0 2.008246,-0.899694 2.008246,-2.008246 0,-1.108552 -0.899694,-2.008247 -2.008246,-2.008247 z m 0,8.032986 H 3.9505212 c -1.108552,0 -2.0082464,0.899694 -2.0082464,2.008247 C 1.9422748,25.100306 2.8419692,26 3.9505212,26 H 28.049479 c 1.108552,0 2.008246,-0.899694 2.008246,-2.008246 0,-1.108553 -0.899694,-2.008247 -2.008246,-2.008247 z" /></svg>
